<svg xmlns="http://www.w3.org/2000/svg" viewBox="0 0 923.08 177.09"><defs><style>.cls-1{fill:#fff;fill-rule:evenodd;}</style></defs><g id="Layer_2" data-name="Layer 2"><g id="Layer_1-2" data-name="Layer 1"><path class="cls-1" d="M364.24,138.52c-34.11,25.18-83.56,38.57-126.15,38.57C178.4,177.09,124.65,155,84,118.3c-3.19-2.89-.35-6.83,3.49-4.6,43.88,25.54,98.15,40.92,154.2,40.92a306.76,306.76,0,0,0,117.61-24.07c5.77-2.44,10.61,3.8,5,8Z"/><path class="cls-1" d="M378.44,122.31c-4.37-5.58-28.84-2.64-39.84-1.33-3.33.41-3.85-2.51-.85-4.61,19.53-13.72,51.53-9.76,55.25-5.17s-1,36.72-19.28,52c-2.82,2.36-5.5,1.1-4.25-2C373.59,150.93,382.81,127.91,378.44,122.31Z"/><path class="cls-1" d="M339.38,19.47V6.15a3.28,3.28,0,0,1,3.37-3.37h59.74a3.33,3.33,0,0,1,3.44,3.36V17.56c0,1.92-1.64,4.42-4.5,8.39L370.49,70.13c11.49-.27,23.63,1.45,34.07,7.31a6.11,6.11,0,0,1,3.17,5.21V96.87c0,2-2.14,4.22-4.4,3-18.38-9.63-42.78-10.68-63.11.12-2.08,1.11-4.25-1.13-4.25-3.09V83.42c0-2.16,0-5.86,2.22-9.16L374,22.84H342.83a3.32,3.32,0,0,1-3.45-3.36ZM121.5,102.71H103.32a3.41,3.41,0,0,1-3.25-3.07l0-93.27A3.43,3.43,0,0,1,103.6,3h16.92a3.42,3.42,0,0,1,3.3,3.13V18.32h.34c4.41-11.77,12.72-17.27,23.92-17.27,11.36,0,18.49,5.5,23.58,17.27,4.41-11.77,14.41-17.27,25.1-17.27,7.63,0,15.94,3.14,21,10.21,5.77,7.85,4.59,19.23,4.59,29.24l0,58.86a3.43,3.43,0,0,1-3.51,3.35H200.71a3.41,3.41,0,0,1-3.27-3.35V49.92c0-3.92.34-13.73-.51-17.46-1.36-6.29-5.43-8-10.68-8a12,12,0,0,0-10.86,7.65c-1.87,4.71-1.7,12.56-1.7,17.86V99.36a3.42,3.42,0,0,1-3.5,3.35H152a3.41,3.41,0,0,1-3.27-3.35l0-49.44c0-10.4,1.7-25.7-11.19-25.7C124.5,24.22,125,39.13,125,49.92V99.36A3.42,3.42,0,0,1,121.5,102.71Zm336-82.62c-13.39,0-14.24,18.25-14.24,29.63s-.17,35.72,14.08,35.72c14.08,0,14.76-19.62,14.76-31.59,0-7.85-.35-17.28-2.72-24.73-2-6.48-6.11-9-11.88-9Zm-.16-19c27,0,41.56,23.17,41.56,52.6,0,28.45-16.12,51-41.56,51-26.46,0-40.88-23.16-40.88-52C416.47,23.62,431.05,1.05,457.35,1.05Zm76.54,101.66H515.78a3.41,3.41,0,0,1-3.26-3.35l0-93.29A3.44,3.44,0,0,1,516,3h16.85a3.46,3.46,0,0,1,3.24,2.61V19.89h.34C541.5,7.13,548.62,1.05,561.17,1.05c8.14,0,16.11,3,21.2,11,4.75,7.46,4.75,20,4.75,29.05V99.78a3.44,3.44,0,0,1-3.48,2.93H565.42a3.41,3.41,0,0,1-3.23-2.93V49.14c0-10.21,1.19-25.13-11.37-25.13-4.4,0-8.48,2.95-10.51,7.46-2.55,5.7-2.89,11.39-2.89,17.67V99.36a3.47,3.47,0,0,1-3.53,3.35Zm-223.81-.23a3.77,3.77,0,0,1-4.29.43c-6-5-7.12-7.34-10.42-12.12-10,10.16-17,13.21-30,13.21-15.3,0-27.2-9.44-27.2-28.32,0-14.75,8-24.78,19.38-29.7,9.86-4.33,23.63-5.11,34.17-6.29V37.33c0-4.34.34-9.44-2.21-13.18-2.21-3.35-6.46-4.72-10.2-4.72-6.93,0-13.09,3.55-14.6,10.91-.32,1.63-1.51,3.26-3.16,3.34L244,31.77a3.21,3.21,0,0,1-2.72-3.8C245.26,6.9,264.08.33,281.18.16h1.35c8.75.11,19.93,2.51,26.74,9,8.84,8.26,8,19.27,8,31.28v28.3c0,8.52,3.54,12.26,6.86,16.84,1.16,1.66,1.42,3.62-.06,4.83-3.71,3.12-10.31,8.84-13.93,12.07Zm-18.32-44.3c0,7.08.17,13-3.4,19.27-2.89,5.11-7.48,8.26-12.58,8.26-7,0-11-5.31-11-13.18,0-15.48,13.87-18.29,27-18.29ZM71.87,102.48a3.77,3.77,0,0,1-4.29.43c-6-5-7.13-7.34-10.42-12.12-10,10.16-17,13.21-30,13.21C11.9,104,0,94.56,0,75.68,0,60.93,8,50.9,19.38,46c9.86-4.33,23.63-5.11,34.16-6.29V37.33c0-4.34.35-9.44-2.2-13.18-2.21-3.35-6.47-4.72-10.2-4.72C34.21,19.43,28,23,26.53,30.34,26.22,32,25,33.6,23.38,33.68L5.76,31.77A3.2,3.2,0,0,1,3.05,28C7,6.9,25.86.33,43,.16h1.34c8.76.11,19.94,2.51,26.75,9,8.84,8.26,8,19.27,8,31.28v28.3C79,77.3,82.58,81,85.9,85.62c1.16,1.66,1.43,3.62-.05,4.83-3.72,3.12-10.32,8.84-13.94,12.07ZM53.54,58.18c0,7.08.18,13-3.39,19.27-2.89,5.11-7.48,8.26-12.59,8.26-7,0-11-5.31-11-13.18,0-15.48,13.88-18.29,27-18.29Zm782,78v-6.85c0-1.95,1-3.3,3-3.18,3.79.54,9.16,1.08,13,.3,5-1,8.55-4.57,10.66-9.4,3-6.81,5-12.3,6.19-15.91L830.55,7.48c-.64-1.59-.83-4.54,2.35-4.54h13.21c2.52,0,3.55,1.6,4.11,3.17l27.41,76.07L903.79,6.11a4.12,4.12,0,0,1,4.11-3.17h12.46c3.15,0,3,2.95,2.35,4.54l-37.5,96.58c-4.86,12.85-11.32,33.32-25.88,36.88-7.3,1.91-16.51,1.22-21.92-1.05-1.36-.68-1.88-2.51-1.88-3.72ZM817.9,97a3.19,3.19,0,0,1-3.18,3.17H805.4A3.65,3.65,0,0,1,801.75,97l-.93-6.35a54.48,54.48,0,0,1-15.24,9c-11,4.26-23.6,5-34.31-1.62-7.74-4.75-11.85-14-11.85-23.63,0-7.41,2.28-14.77,7.35-20.11,6.76-7.29,16.56-10.87,28.4-10.87,7.15,0,17.37.84,24.82,3.27V34c0-13-5.47-18.6-19.88-18.6-11,0-19.43,1.66-31.16,5.31a2.86,2.86,0,0,1-3-3.11V10.29a4.53,4.53,0,0,1,3.1-3.95C757.46,2.69,769.32.42,781.92,0c16.44,0,36,3.71,36,29ZM800,78.37V59.11c-6.26-1.71-16.61-2.42-20.61-2.42-6.33,0-13.26,1.49-16.88,5.39A15.92,15.92,0,0,0,758.57,73c0,5.12,1.78,10.26,5.92,12.8,4.81,3.27,12.27,2.88,19.29.88C790.52,84.77,796.84,81.39,800,78.37ZM680.49,15.66c20.68,0,26.31,16.26,26.31,34.87.12,12.55-2.19,23.74-8.69,30.15-4.86,4.8-10.3,6.1-18.47,6.1-7.28,0-16.86-3.79-24-9.08V24.47A42.76,42.76,0,0,1,680.49,15.66Zm-28,123.85H640a3.19,3.19,0,0,1-3.18-3.17V6.28A3.19,3.19,0,0,1,640,3.11h9.55a3.64,3.64,0,0,1,3.64,3.17l1,6.81c9-7.94,20.47-13,31.45-13,30.74,0,40.85,25.33,40.85,51.67,0,28.18-15.46,50.82-41.62,50.82a43.75,43.75,0,0,1-29.22-11.12v44.91a3.18,3.18,0,0,1-3.17,3.17Z"/></g></g></svg>