<svg xmlns="http://www.w3.org/2000/svg" viewBox="0 0 923.08 379.01"><defs><style>.cls-1{fill:#fff;}</style></defs><g id="Layer_2" data-name="Layer 2"><g id="Layer_1-2" data-name="Layer 1"><path class="cls-1" d="M168.66,48.86c-10.81,12.81-28.12,22.9-45.43,21.46-2.17-17.31,6.31-35.7,16.22-47.06C150.27,10.1,169.2.72,184.53,0c1.8,18-5.23,35.7-15.87,48.86m15.69,24.89C159.29,72.3,137.83,88,125.93,88,113.85,88,95.64,74.47,75.8,74.83,50,75.19,26,89.79,12.88,113.05c-27,46.52-7,115.4,19.11,153.27,12.8,18.75,28.13,39.3,48.32,38.58,19.11-.72,26.69-12.44,49.77-12.44,23.26,0,29.93,12.44,50.12,12.08,20.92-.36,34.08-18.75,46.88-37.5A164.26,164.26,0,0,0,248,223.94c-.36-.36-40.39-15.68-40.75-61.84-.36-38.59,31.55-57,33-58.06-18-26.69-46.16-29.57-55.9-30.29M329.14,21.46v281.1h43.63V206.45h60.41c55.17,0,93.94-37.86,93.94-92.67s-38.05-92.32-92.5-92.32Zm43.63,36.78h50.31c37.86,0,59.5,20.19,59.5,55.72s-21.64,55.89-59.68,55.89H372.77ZM606.82,304.72c27.4,0,52.83-13.88,64.37-35.88h.9v33.72h40.39V162.64c0-40.57-32.46-66.72-82.4-66.72-46.34,0-80.6,26.51-81.87,62.93h39.31c3.25-17.31,19.3-28.67,41.29-28.67,26.69,0,41.65,12.44,41.65,35.34V181L616,184.28c-50.67,3.06-78.07,23.8-78.07,59.86C537.94,280.56,566.25,304.72,606.82,304.72Zm11.72-33.35c-23.26,0-38-11.18-38-28.31,0-17.67,14.24-27.95,41.47-29.57l48.5-3.07v15.87C670.46,252.61,648.11,271.37,618.54,271.37ZM766.39,379c42.55,0,62.57-16.23,80.06-65.45L923.08,98.63H878.72L827.33,264.69h-.9L775,98.63H729.43l73.92,204.65-4,12.44c-6.68,21.1-17.49,29.21-36.79,29.21-3.42,0-10.09-.36-12.8-.72v33.72c2.52.72,13.34,1.08,16.59,1.08Z"/></g></g></svg>