<svg xmlns="http://www.w3.org/2000/svg" viewBox="0 0 229.74 235.8"><defs><style>.cls-1{fill:#fff;}</style></defs><g id="Layer_2" data-name="Layer 2"><g id="Layer_1-2" data-name="Layer 1"><path class="cls-1" d="M119.58,140.15V107.94H228.13a106.75,106.75,0,0,1,1.61,19.44c0,24.17-6.6,54.06-27.9,75.35-20.71,21.57-47.17,33.07-82.23,33.07C54.64,235.8,0,182.88,0,117.9S54.64,0,119.61,0c36,0,61.55,14.1,80.79,32.49L177.67,55.22c-13.79-12.94-32.48-23-58.09-23C72.13,32.21,35,70.45,35,117.9s37.11,85.69,84.56,85.69c30.77,0,48.3-12.36,59.53-23.59,9.11-9.11,15.1-22.11,17.46-39.88Z"/></g></g></svg>