<svg xmlns="http://www.w3.org/2000/svg" viewBox="0 0 400.45 106.72"><defs><style>.cls-1{fill:#fff;fill-rule:evenodd;}</style></defs><g id="Layer_2" data-name="Layer 2"><g id="Layer_1-2" data-name="Layer 1"><path class="cls-1" d="M51.2,0C64.27,0,76.33,7.11,74.68,24.78c-2,21-13.25,32.62-31,32.67H28.17c-2.23,0-3.31,1.82-3.89,5.55l-3,19.07c-.45,2.88-1.93,4.3-4.11,4.3H2.74c-2.3,0-3.1-1.47-2.59-4.76L12.06,5.18c.59-3.76,2-5.16,4.57-5.16H51.2ZM27.7,40.94H39.45c7.35-.28,12.23-5.37,12.72-14.55.3-5.67-3.53-9.73-9.62-9.7l-11.06,0L27.7,40.94Zm86.21,39.58c1.32-1.2,2.66-1.82,2.47-.34l-.47,3.54c-.24,1.85.49,2.83,2.21,2.83h12.82c2.16,0,3.21-.87,3.74-4.21l7.9-49.58c.4-2.49-.21-3.71-2.1-3.71h-14.1c-1.27,0-1.89.71-2.22,2.65l-.52,3.05c-.27,1.59-1,1.87-1.68.27-2.39-5.66-8.49-8.2-17-8-19.77.41-33.1,15.42-34.53,34.66C69.33,76.56,80,88.25,94.05,88.25c10.2,0,14.76-3,19.9-7.7h0Zm-10.74-7.63c-8.51,0-14.44-6.79-13.21-15.11s9.19-15.11,17.7-15.11,14.44,6.79,13.21,15.11-9.18,15.11-17.7,15.11Zm64.5-44h-13c-2.68,0-3.77,2-2.92,4.46l16.14,47.26L152.06,103.1c-1.33,1.88-.3,3.59,1.57,3.59h14.61a4.47,4.47,0,0,0,4.34-2.13l49.64-71.2c1.53-2.19.81-4.49-1.7-4.49H206.69c-2.37,0-3.32.94-4.68,2.91l-20.7,30-9.25-30.07c-.54-1.82-1.89-2.82-4.38-2.82Z"/><path class="cls-1" d="M273.86,0C286.93,0,299,7.11,297.34,24.78c-2,21-13.25,32.62-31,32.67h-15.5c-2.23,0-3.31,1.82-3.89,5.55l-3,19.07c-.45,2.88-1.93,4.3-4.11,4.3H225.41c-2.3,0-3.1-1.47-2.59-4.76L234.75,5.16c.59-3.76,2-5.16,4.57-5.16h34.54Zm-23.5,40.92h11.75c7.35-.28,12.23-5.37,12.72-14.55.3-5.67-3.53-9.73-9.62-9.7l-11.06,0-3.79,24.2Zm86.21,39.58c1.32-1.2,2.66-1.82,2.47-.34l-.47,3.54c-.24,1.85.49,2.83,2.21,2.83H353.6c2.16,0,3.21-.87,3.74-4.21l7.9-49.58c.4-2.49-.21-3.71-2.1-3.71H349.06c-1.27,0-1.89.71-2.22,2.65l-.52,3.05c-.27,1.59-1,1.87-1.68.27-2.39-5.66-8.49-8.2-17-8-19.77.41-33.1,15.42-34.53,34.66-1.1,14.88,9.56,26.57,23.62,26.57,10.2,0,14.76-3,19.9-7.7h0Zm-10.73-7.63c-8.51,0-14.44-6.79-13.21-15.11s9.19-15.11,17.7-15.11,14.44,6.79,13.21,15.11-9.19,15.11-17.7,15.11ZM385,86.63h-14.8A1.75,1.75,0,0,1,368.34,85a1.83,1.83,0,0,1,0-.33l13-82.36a2.53,2.53,0,0,1,2.46-2h14.8a1.74,1.74,0,0,1,1.82,1.67,1.82,1.82,0,0,1,0,.33l-13,82.36a2.55,2.55,0,0,1-2.46,2Z"/></g></g></svg>